<?xml version="1.0" standalone="no"?>
<!DOCTYPE svg PUBLIC "-//W3C//DTD SVG 20010904//EN"
 "http://www.w3.org/TR/2001/REC-SVG-20010904/DTD/svg10.dtd">
<svg version="1.0" xmlns="http://www.w3.org/2000/svg"
 width="1024.000000pt" height="1024.000000pt" viewBox="0 0 1024.000000 1024.000000"
 preserveAspectRatio="xMidYMid meet">

<g transform="translate(0.000000,1024.000000) scale(0.100000,-0.100000)"
fill="#000000" stroke="none">
<path d="M0 5120 l0 -5120 5120 0 5120 0 0 5120 0 5120 -5120 0 -5120 0 0
-5120z m5527 3147 c147 -38 311 -198 372 -363 19 -49 21 -81 23 -394 l3 -340
381 0 c405 0 431 -3 528 -52 60 -31 197 -174 227 -238 60 -124 59 -116 59
-558 0 -441 -2 -461 -57 -571 -31 -61 -145 -183 -208 -223 -102 -64 -115 -65
-543 -73 l-392 -8 0 -316 c0 -235 -4 -329 -14 -367 -35 -130 -142 -265 -272
-342 -117 -70 -148 -74 -523 -70 l-329 3 -98 50 c-184 93 -312 253 -335 421
-5 39 -8 195 -7 348 l3 276 -75 0 c-743 5 -701 3 -761 28 -124 50 -248 156
-302 259 -68 131 -69 135 -65 595 4 397 5 415 26 472 53 141 156 260 279 322
l76 39 407 3 407 3 7 329 c7 375 13 408 88 521 85 128 190 206 328 245 66 18
696 19 767 1z m993 -476 c14 -9 35 -37 48 -62 72 -137 -78 -297 -206 -219 -35
21 -82 106 -82 148 0 114 147 196 240 133z m-2604 0 c63 -39 97 -126 70 -179
-59 -114 -172 -162 -243 -103 -37 31 -73 92 -73 125 0 49 44 133 82 156 43 26
122 27 164 1z m3390 -753 c-16 -11 -138 -10 -132 0 3 5 36 8 75 8 38 -1 64 -4
57 -8z m-5195 -107 c23 -24 29 -38 29 -74 l0 -44 272 -6 c149 -4 347 -7 440
-7 l169 0 -3 -22 -3 -23 -234 3 c-129 1 -239 6 -245 12 -7 5 -17 5 -26 0 -9
-6 -72 -6 -150 -2 -130 7 -191 7 -282 2 -37 -2 -46 2 -76 35 -30 32 -33 42
-28 74 6 42 46 81 82 81 15 0 38 -12 55 -29z m6153 -7 c34 -35 35 -82 1 -122
-33 -40 -76 -49 -109 -25 -30 22 -46 54 -46 91 1 74 100 110 154 56z m-5200
-5 c19 -18 -29 -21 -247 -17 -226 3 -313 17 -187 29 86 9 423 0 434 -12z
m4627 4 c156 -12 60 -21 -235 -22 -170 -1 -266 3 -260 8 17 18 332 26 495 14z
m404 -113 c10 -17 -35 -27 -152 -33 -106 -6 -113 -5 -113 12 0 11 6 22 13 24
24 10 246 7 252 -3z m-355 -29 c0 -22 -53 -27 -322 -31 l-178 -2 0 26 0 26
250 0 c237 0 250 -1 250 -19z m248 -126 c-4 -27 -68 -32 -440 -34 l-298 -1 0
23 c0 13 2 26 4 28 2 2 169 4 371 4 360 0 366 0 363 -20z m-4978 -11 l0 -27
-390 5 c-257 3 -395 9 -402 16 -29 29 7 32 398 32 l394 0 0 -26z m5015 6 c-3
-5 -11 -10 -16 -10 -6 0 -7 5 -4 10 3 6 11 10 16 10 6 0 7 -4 4 -10z m-5015
-128 l0 -22 -667 2 c-620 3 -668 4 -671 20 -4 23 20 24 745 23 l593 0 0 -23z
m5486 16 c31 -32 -67 -37 -651 -38 -313 0 -576 0 -582 0 -7 0 -13 9 -13 19 0
11 6 22 13 25 19 8 1224 2 1233 -6z m-5486 -153 l0 -25 -337 1 c-338 0 -441 6
-414 23 15 10 302 22 569 24 l182 2 0 -25z m5010 12 c15 -1 25 -8 25 -17 0
-13 -52 -15 -397 -18 l-398 -2 0 27 0 26 373 -7 c204 -4 383 -9 397 -9z
m-5062 -113 c37 -5 42 -8 42 -31 l0 -25 -755 3 -755 4 0 27 0 28 253 2 c343 4
1162 -2 1215 -8z m5842 -11 c0 -12 -4 -24 -8 -27 -5 -3 -354 -8 -776 -11
l-767 -6 3 28 3 28 390 5 c215 3 562 5 773 5 l382 0 0 -22z m-791 -139 c23
-10 23 -11 5 -18 -10 -5 -187 -11 -391 -13 l-373 -5 0 26 0 27 368 -3 c226 -2
376 -8 391 -14z m-4999 -1 c-1 -35 -10 -36 -381 -28 -544 10 -639 15 -484 25
149 9 865 11 865 3z m5578 -140 l-3 -28 -667 -3 -668 -2 0 26 0 27 593 -6
c493 -5 657 -3 740 12 5 0 7 -11 5 -26z m-5580 -12 l4 -24 -479 6 c-450 6
-587 14 -523 31 39 10 163 12 595 12 l400 -1 3 -24z m0 -118 c-4 -25 -69 -31
-305 -31 -178 -1 -193 1 -193 17 0 10 3 21 7 24 3 4 116 7 250 7 227 0 244 -1
241 -17z m4722 -3 c0 -19 -7 -20 -97 -20 -54 0 -162 -3 -240 -7 l-143 -6 0 26
0 27 240 0 c233 0 240 -1 240 -20z m244 13 c4 -5 12 -8 17 -8 5 0 9 -4 9 -10
0 -6 -33 -11 -75 -13 -61 -2 -75 0 -75 12 0 9 12 16 33 19 59 7 84 7 91 0z
m-5486 -20 c-3 -16 -18 -18 -125 -21 -105 -2 -122 0 -117 12 7 18 34 23 152
25 84 1 93 -1 90 -16z m-275 -10 c-7 -2 -19 -2 -25 0 -7 3 -2 5 12 5 14 0 19
-2 13 -5z m6020 -94 c74 -38 77 -158 6 -195 -49 -25 -87 -18 -109 19 -59 97
14 222 103 176z m-5193 -13 c0 -8 -7 -16 -15 -19 -30 -12 -668 -21 -661 -9 3
6 -2 13 -11 15 -10 3 2 6 27 7 25 1 92 6 150 10 58 3 196 7 308 8 167 2 202 0
202 -12z m4781 -3 c19 -19 -198 -31 -468 -25 -128 2 -133 3 -133 23 0 21 1 21
295 18 204 -3 298 -8 306 -16z m-5656 -12 l60 -6 -90 -7 c-98 -8 -115 -18
-115 -69 0 -37 -15 -44 -29 -13 -16 36 -14 55 11 81 23 25 48 27 163 14z m909
-131 c-31 -12 -257 -24 -285 -14 -23 8 -22 8 11 15 53 10 299 9 274 -1z m823
-437 c40 -19 93 -94 93 -132 0 -41 -47 -108 -96 -137 -79 -46 -149 -21 -196
70 -14 28 -19 51 -15 78 6 45 48 110 80 126 33 16 95 14 134 -5z m2630 -9 c14
-11 37 -41 51 -67 22 -43 24 -52 13 -86 -14 -50 -80 -117 -125 -130 -75 -20
-152 29 -175 112 -11 37 -10 50 4 83 18 43 59 91 90 105 31 14 114 4 142 -17z
m-461 -1238 c3 -3 8 -646 6 -858 l-2 -238 -99 0 -99 0 -8 68 c-4 37 -4 157 -1
267 3 110 3 229 -1 265 l-8 65 -16 -31 c-10 -17 -70 -113 -135 -213 -65 -99
-130 -201 -145 -226 -24 -39 -32 -45 -61 -45 -22 0 -41 8 -54 23 -24 25 -109
159 -211 332 -69 116 -95 155 -103 155 -2 0 -4 -37 -4 -82 0 -46 -1 -196 -3
-335 l-2 -252 -103 2 -104 2 -7 342 c-4 188 -4 436 0 552 l7 211 91 0 91 0 51
-67 c60 -79 152 -220 182 -278 11 -22 49 -83 84 -136 35 -53 68 -105 74 -115
9 -15 15 -9 49 47 92 155 204 333 276 440 l78 117 88 -5 c48 -3 89 -6 89 -7z
m-4315 -126 c99 -154 135 -213 231 -378 l72 -123 16 33 c15 31 118 198 253
413 31 50 69 111 84 137 l28 48 97 0 96 0 1 -549 c1 -303 -2 -552 -6 -554 -5
-2 -51 -2 -104 1 l-96 4 1 329 c1 181 -1 329 -4 329 -3 0 -20 -27 -38 -60 -18
-33 -79 -129 -135 -214 -56 -85 -115 -177 -130 -206 -25 -47 -30 -51 -60 -48
-30 3 -39 15 -142 183 -61 99 -134 216 -163 260 l-52 80 0 -330 0 -331 -102 4
c-57 2 -104 5 -105 6 -1 1 -4 245 -7 543 l-5 542 22 4 c12 2 54 5 93 6 l70 1
85 -130z m1835 28 l-1 -103 -277 -3 -278 -2 0 -115 0 -115 255 0 255 0 0 -105
0 -105 -261 0 c-143 0 -258 -4 -255 -8 3 -5 6 -59 7 -121 l1 -112 287 1 286 1
3 -83 c2 -46 0 -93 -3 -105 l-5 -23 -385 0 -385 0 0 550 0 550 378 0 379 0 -1
-102z m676 87 c40 -8 109 -33 153 -55 199 -98 285 -239 285 -467 0 -162 -39
-273 -131 -377 -138 -155 -315 -205 -661 -190 l-148 7 0 548 0 549 214 0 c152
0 236 -4 288 -15z m2764 -31 c-3 -26 -6 -74 -6 -106 l0 -60 -272 4 -273 3 -3
-117 -3 -118 251 0 250 0 0 -105 0 -106 -250 3 -250 3 0 -117 0 -118 239 0
c131 0 259 -3 285 -6 l46 -7 0 -103 0 -104 -390 0 -390 0 0 550 0 550 386 0
387 0 -7 -46z m908 24 c3 -13 6 -61 6 -106 l0 -84 -265 4 -265 3 0 -117 0
-118 255 0 255 0 0 -105 0 -105 -255 0 -255 0 0 -117 0 -118 283 -4 c155 -2
284 -5 286 -7 2 -2 6 -49 9 -104 l5 -100 -395 0 -395 0 -6 203 c-9 264 -9 882
0 890 3 4 169 7 369 7 l362 0 6 -22z m926 -83 l0 -105 -151 0 -152 0 8 -231
c4 -127 4 -327 0 -444 l-7 -214 -103 -3 -102 -3 -5 130 c-2 72 -1 274 2 450
l5 320 -136 -3 -136 -4 -7 32 c-3 18 -6 66 -6 106 l0 74 395 0 395 0 0 -105z
m-5281 -1352 c14 -29 29 -53 33 -53 3 0 24 22 45 49 69 90 83 81 83 -50 0 -88
-2 -99 -17 -99 -16 0 -18 8 -15 60 5 83 -2 81 -77 -20 l-19 -24 -21 41 c-31
62 -41 62 -41 -1 0 -49 -2 -56 -20 -56 -19 0 -20 7 -20 98 0 54 3 102 7 106
16 15 37 -2 62 -51z m488 41 c9 -23 -16 -35 -67 -32 -40 3 -45 1 -48 -19 -3
-22 0 -23 52 -23 42 0 56 -4 56 -14 0 -11 -15 -16 -52 -18 -46 -3 -53 -6 -56
-25 -3 -20 1 -22 55 -25 46 -2 59 -7 61 -20 3 -16 -6 -18 -72 -18 l-76 0 0 84
c0 46 -3 91 -6 100 -5 12 5 16 53 19 32 2 66 4 76 5 10 1 20 -5 24 -14z m246
6 c47 0 97 -44 97 -85 0 -69 -55 -115 -137 -115 l-48 0 2 102 c1 57 2 105 3
107 0 2 10 1 23 -3 12 -3 39 -6 60 -6z m311 -12 c3 -13 6 -60 6 -105 0 -64 -3
-83 -14 -83 -7 0 -16 10 -20 23 -8 30 -8 172 1 180 12 12 21 7 27 -15z m317
12 c10 -6 19 -19 19 -29 0 -15 -8 -18 -61 -17 -51 1 -63 -2 -75 -19 -12 -18
-11 -25 4 -55 17 -34 18 -35 75 -32 58 2 72 -9 45 -36 -17 -17 -89 -15 -116 4
-27 19 -52 65 -52 96 1 63 102 119 161 88z m539 -75 l5 -80 45 -5 c32 -4 46
-10 48 -22 3 -16 -5 -18 -61 -18 l-64 0 -7 46 c-3 26 -6 73 -6 106 0 51 2 59
18 56 14 -3 18 -17 22 -83z m905 24 l39 -50 25 50 c33 67 57 69 67 4 14 -89
11 -147 -8 -151 -14 -3 -17 7 -20 60 l-3 63 -27 -57 c-15 -32 -29 -58 -32 -58
-3 0 -14 17 -25 38 -11 21 -26 44 -34 51 -13 10 -16 4 -22 -43 -5 -38 -12 -56
-21 -56 -11 0 -14 21 -14 98 0 54 3 101 6 105 11 10 28 -3 69 -54z m465 41 c0
-18 -7 -20 -55 -20 -51 0 -55 -2 -55 -24 0 -22 3 -23 50 -18 46 4 50 3 50 -17
0 -22 -11 -26 -67 -22 -29 2 -33 0 -33 -23 0 -13 5 -28 10 -31 6 -3 10 -1 10
4 0 6 17 11 39 11 32 0 40 -4 45 -22 8 -31 0 -35 -70 -30 l-61 4 -7 60 c-3 34
-6 78 -6 99 0 41 5 44 108 47 36 2 42 -1 42 -18z m-1638 -7 c17 -20 71 -125
82 -160 10 -33 -22 -30 -49 3 -19 24 -25 26 -64 19 -30 -5 -45 -13 -48 -26 -5
-18 -33 -26 -45 -13 -9 8 85 193 98 194 6 0 18 -8 26 -17z m756 5 c-3 -7 -21
-14 -42 -16 l-37 -3 1 -72 c2 -98 2 -97 -16 -90 -14 5 -16 18 -12 79 5 72 5
73 -21 76 -15 2 -27 10 -29 21 -3 15 6 17 78 17 61 0 81 -3 78 -12z m140 -85
c-2 -66 -7 -98 -15 -101 -10 -3 -13 21 -13 97 0 84 3 101 15 101 13 0 15 -15
13 -97z"/>
<path d="M4995 8101 c-208 -6 -210 -6 -263 -35 -65 -37 -141 -116 -178 -187
-28 -53 -28 -58 -35 -284 -4 -126 -8 -312 -8 -412 l-1 -183 -457 0 -458 0 -53
-25 c-71 -33 -157 -117 -196 -190 l-31 -60 -3 -390 c-2 -260 1 -405 8 -434 23
-91 117 -194 230 -249 l55 -27 448 -2 c247 -1 451 -3 453 -5 2 -2 6 -182 10
-399 l6 -394 30 -60 c41 -81 79 -127 136 -163 96 -61 123 -64 471 -66 313 -1
316 -1 364 23 79 38 152 113 191 194 l34 72 5 387 c3 213 8 391 11 396 3 5
207 13 458 17 l453 7 49 25 c61 31 133 98 183 170 l38 55 3 415 3 414 -32 56
c-46 81 -141 178 -204 209 l-54 26 -450 -4 -451 -3 -1 100 c-1 55 -4 244 -8
420 l-6 320 -48 72 c-56 84 -109 133 -187 171 -50 25 -65 27 -180 28 -69 0
-219 -2 -335 -5z m476 -176 c23 -22 63 -66 90 -98 l49 -58 0 -402 c0 -451 -2
-440 75 -487 l38 -23 452 1 453 1 40 -35 c23 -19 62 -64 89 -100 l48 -65 -3
-267 c-2 -147 -6 -281 -9 -299 -4 -28 -7 -31 -20 -18 -8 8 -29 15 -46 15 -24
0 -28 -3 -17 -10 12 -7 13 -15 4 -39 -7 -16 -9 -41 -7 -55 3 -15 1 -26 -6 -26
-6 0 -11 12 -11 26 0 14 -4 23 -10 19 -5 -3 -10 -15 -10 -26 0 -11 -12 -42
-26 -69 -30 -58 -35 -82 -20 -93 6 -5 0 -6 -14 -3 -14 3 -60 8 -102 12 -60 5
-78 4 -78 -6 0 -10 -3 -10 -15 0 -12 10 -28 10 -77 0 -46 -9 -123 -9 -286 -3
-123 4 -226 5 -228 2 -2 -4 -20 -10 -39 -13 -19 -4 -35 -13 -35 -19 0 -7 -38
-48 -85 -91 -46 -44 -82 -82 -80 -86 3 -5 -4 -6 -16 -3 -11 3 -18 11 -15 19 3
8 0 11 -9 7 -16 -5 -85 57 -85 76 0 6 -4 11 -10 11 -5 0 -10 16 -10 35 0 19 5
35 10 35 6 0 10 5 10 10 0 6 -7 10 -16 8 -10 -2 -19 3 -21 10 -3 7 4 12 16 12
23 0 28 15 9 23 -8 4 -7 6 3 6 17 1 34 29 24 40 -3 3 -15 -1 -27 -8 -21 -13
-21 -12 -15 45 l6 59 -14 -40 c-7 -22 -20 -67 -30 -100 -9 -33 -29 -100 -45
-150 -31 -97 -70 -279 -94 -440 -22 -149 -41 -185 -97 -185 -43 0 -49 25 -59
255 -12 246 -15 265 -40 265 -11 0 -20 6 -20 13 0 17 -46 57 -65 57 -8 0 -15
-7 -15 -15 0 -8 -9 -15 -19 -15 -11 0 -22 -8 -25 -18 -3 -10 -19 -25 -35 -35
-22 -13 -27 -22 -23 -42 4 -22 1 -25 -27 -25 -24 0 -31 -4 -31 -20 0 -17 -7
-20 -40 -20 -29 0 -40 4 -40 15 0 8 -9 15 -19 15 -17 0 -21 -8 -24 -52 -2 -30
-4 -6 -6 52 -1 60 -7 114 -14 126 -14 25 -131 124 -147 124 -14 0 -13 17 3 23
9 4 9 8 -2 15 -16 11 -756 8 -817 -4 l-39 -7 30 -13 30 -13 -35 0 c-28 0 -49
12 -105 57 -118 97 -113 78 -116 493 l-3 356 35 49 c20 28 61 71 92 98 l55 47
456 -2 456 -2 41 29 c73 50 69 24 69 475 l0 407 33 48 c36 52 132 127 182 143
17 5 148 9 292 8 l262 -2 42 -40z m1307 -1979 c-7 -8 -15 -12 -17 -11 -5 6 10
25 20 25 5 0 4 -6 -3 -14z m-1355 -91 c-3 -9 -8 -14 -10 -11 -3 3 -2 9 2 15 9
16 15 13 8 -4z"/>
<path d="M3840 6513 c-19 -10 -61 -42 -92 -73 -48 -47 -57 -62 -63 -103 -7
-46 -5 -52 31 -105 47 -68 90 -99 152 -108 39 -6 54 -3 99 21 29 15 71 47 93
71 36 39 40 48 40 96 -1 78 -27 126 -92 172 -66 45 -118 54 -168 29z m123
-131 c37 -39 36 -84 -2 -123 -62 -62 -145 -23 -139 65 2 33 9 44 37 63 45 30
72 29 104 -5z"/>
<path d="M5251 6344 c0 -11 3 -14 6 -6 3 7 2 16 -1 19 -3 4 -6 -2 -5 -13z"/>
<path d="M5252 6300 c0 -14 2 -19 5 -12 2 6 2 18 0 25 -3 6 -5 1 -5 -13z"/>
<path d="M5960 6210 c34 -11 60 -11 35 0 -11 5 -29 8 -40 8 -16 0 -15 -2 5 -8z"/>
<path d="M6118 6213 c6 -2 18 -2 25 0 6 3 1 5 -13 5 -14 0 -19 -2 -12 -5z"/>
<path d="M6038 6203 c7 -3 16 -2 19 1 4 3 -2 6 -13 5 -11 0 -14 -3 -6 -6z"/>
<path d="M5253 6160 c0 -25 2 -35 4 -22 2 12 2 32 0 45 -2 12 -4 2 -4 -23z"/>
<path d="M5520 5900 c0 -5 5 -10 10 -10 6 0 10 5 10 10 0 6 -4 10 -10 10 -5 0
-10 -4 -10 -10z"/>
<path d="M5845 5860 c1 -8 8 -15 15 -15 7 0 14 7 15 15 2 9 -5 16 -15 16 -10
0 -17 -7 -15 -16z"/>
<path d="M6390 5870 c0 -5 5 -10 11 -10 5 0 7 5 4 10 -3 6 -8 10 -11 10 -2 0
-4 -4 -4 -10z"/>
<path d="M6300 5830 c-20 -6 -21 -8 -5 -8 11 0 31 4 45 8 20 6 21 8 5 8 -11 0
-31 -4 -45 -8z"/>
<path d="M5073 5670 c0 -30 2 -43 4 -27 2 15 2 39 0 55 -2 15 -4 2 -4 -28z"/>
<path d="M6418 7679 c-20 -11 -24 -44 -7 -54 5 -4 24 -1 40 5 22 10 29 19 27
34 -3 24 -34 31 -60 15z"/>
<path d="M3834 7649 c-3 -6 -15 -9 -25 -6 -11 3 -19 1 -19 -4 0 -10 40 -12 64
-3 9 3 13 10 10 15 -7 12 -21 11 -30 -2z"/>
<path d="M2033 6883 c-22 -34 -7 -57 41 -61 43 -4 56 16 33 52 -24 35 -54 39
-74 9z"/>
<path d="M8170 6890 c-33 -33 -19 -70 25 -70 44 0 63 60 26 80 -26 13 -28 13
-51 -10z"/>
<path d="M8154 5665 c-36 -55 35 -106 79 -57 22 24 21 45 -1 65 -27 24 -59 21
-78 -8z"/>
<path d="M6420 5015 c-9 -10 -10 -19 -3 -26 14 -14 45 0 41 19 -4 22 -23 25
-38 7z"/>
<path d="M3970 3362 l0 -342 109 0 c156 0 225 23 301 98 102 103 138 216 106
335 -26 94 -75 154 -166 200 -73 37 -78 38 -212 44 l-138 6 0 -341z"/>
<path d="M4262 2404 c3 -67 4 -69 30 -72 19 -2 36 5 53 22 47 47 24 101 -49
113 l-37 6 3 -69z"/>
<path d="M5179 2414 c-10 -13 -10 -17 2 -25 22 -13 29 -11 29 10 0 27 -15 34
-31 15z"/>
</g>
</svg>
